<svg width="56" height="56" viewBox="0 0 56 56" fill="none" xmlns="http://www.w3.org/2000/svg">
<g clip-path="url(#clip0_12439_1225)">
<g clip-path="url(#clip1_12439_1225)">
<path fill-rule="evenodd" clip-rule="evenodd" d="M28 56C43.464 56 56 43.464 56 28C56 12.536 43.464 0 28 0C12.536 0 0 12.536 0 28C0 43.464 12.536 56 28 56Z" fill="#F7B654"/>
<mask id="mask0_12439_1225" style="mask-type:alpha" maskUnits="userSpaceOnUse" x="0" y="0" width="56" height="56">
<path fill-rule="evenodd" clip-rule="evenodd" d="M28 56C43.464 56 56 43.464 56 28C56 12.536 43.464 0 28 0C12.536 0 0 12.536 0 28C0 43.464 12.536 56 28 56Z" fill="white"/>
</mask>
<g mask="url(#mask0_12439_1225)">
<path d="M34 15C33.8227 13.1758 31.073 12 28 12C24.927 12 22.0542 13.1758 22 15" stroke="#404040" stroke-width="0.5"/>
<path fill-rule="evenodd" clip-rule="evenodd" d="M9 59.7555H46.0335V14.0083H9V59.7555Z" fill="#C2977C"/>
<mask id="mask1_12439_1225" style="mask-type:alpha" maskUnits="userSpaceOnUse" x="9" y="14" width="38" height="46">
<path fill-rule="evenodd" clip-rule="evenodd" d="M9 59.7555H46.0335V14.0083H9V59.7555Z" fill="white"/>
</mask>
<g mask="url(#mask1_12439_1225)">
<path fill-rule="evenodd" clip-rule="evenodd" d="M39.639 56.8545L31.6256 52.1408L42.4669 33.5429L50.4803 38.2566L39.639 56.8545Z" fill="#FA6400"/>
<path fill-rule="evenodd" clip-rule="evenodd" d="M9 44.3488V64.4258H11.9693L24.4807 42.7712L13.6316 36.3323L9 44.3488Z" fill="#5CB79F"/>
<path fill-rule="evenodd" clip-rule="evenodd" d="M28.0532 58.2182L38.3571 64.2266H45.3497L46.7094 61.9143L31.1984 52.8696L28.0532 58.2182Z" fill="#DF3378"/>
<path fill-rule="evenodd" clip-rule="evenodd" d="M33.5983 46.8923L25.87 42.3598L28.4621 37.9263L36.1905 42.4587L33.5983 46.8923Z" fill="#B71277"/>
<path fill-rule="evenodd" clip-rule="evenodd" d="M40.5568 57.3559L59.0146 67.9126L97.7163 63.4296L51.3859 38.7233L40.5568 57.3559Z" fill="#F75F75"/>
<path fill-rule="evenodd" clip-rule="evenodd" d="M9 32.4727L24.9559 41.9112L28.4501 35.883L9 24.3777V32.4727Z" fill="#DF3378"/>
<path fill-rule="evenodd" clip-rule="evenodd" d="M9 40.9334L9.63213 41.3134L12.7709 35.8101L9 33.5429V40.9334Z" fill="#F75F75"/>
<path fill-rule="evenodd" clip-rule="evenodd" d="M25.3065 61.2379L17.5342 56.6673L25.4412 43.1066L33.2134 47.6773L25.3065 61.2379Z" fill="#F5B554"/>
</g>
<path fill-rule="evenodd" clip-rule="evenodd" d="M39.2869 25.3558C38.9496 25.4105 38.5385 25.5092 37.2839 25.5092C35.9134 25.5092 34.8487 25.1257 34.8487 23.2637L34.8493 20.9591C34.8493 19.097 35.9139 18.7137 37.2844 18.7137C38.5389 18.7137 38.9501 18.8123 39.2874 18.867C39.4456 18.889 39.4982 18.9437 39.4982 19.097V19.7981C39.4982 19.9185 39.4034 20.0171 39.2874 20.0171H37.1369C36.5254 20.0171 36.304 20.2362 36.304 20.9591V21.397H39.161C39.2768 21.397 39.3718 21.4957 39.3718 21.6161V22.4047C39.3718 22.5252 39.2768 22.6238 39.161 22.6238H36.304L36.3035 23.2637C36.3035 23.9866 36.5249 24.2057 37.1364 24.2057H39.2869C39.403 24.2057 39.4977 24.3043 39.4977 24.4248V25.1257C39.4977 25.2791 39.445 25.3338 39.2869 25.3558" fill="#555555"/>
<path fill-rule="evenodd" clip-rule="evenodd" d="M26.6226 19.2802L25.6367 25.3003C25.6164 25.4103 25.5357 25.5092 25.4345 25.5092H25.3335C25.2425 25.5092 25.192 25.4322 25.192 25.3443V25.3003L26.178 19.2802C26.1981 19.1703 26.279 19.0714 26.3801 19.0714H26.4811C26.5721 19.0714 26.6226 19.1483 26.6226 19.2363V19.2802Z" fill="#555555"/>
<path fill-rule="evenodd" clip-rule="evenodd" d="M24.1191 19.256L23.232 24.6296C23.1343 25.3137 22.8193 25.5092 22.2545 25.5092H21.6683C21.1795 25.5092 20.919 25.2703 20.7669 24.6405L19.9089 21.9393C19.8872 21.8415 19.8872 21.8198 19.8439 21.8198C19.8005 21.8198 19.7896 21.8415 19.7678 21.9393L18.9099 24.6405C18.7579 25.2703 18.4973 25.5092 18.0086 25.5092H17.4222C16.8575 25.5092 16.5426 25.3137 16.4449 24.6296L15.5354 19.256V19.2235C15.5354 19.1257 15.6223 19.0714 15.72 19.0714H16.8712C16.958 19.0714 17.0449 19.1474 17.0557 19.2669L17.7262 24.0324C17.7372 24.1301 17.7372 24.1953 17.7805 24.1953C17.824 24.1953 17.824 24.1301 17.8456 24.0324L18.7796 21.1031C18.8449 20.8426 18.9968 20.6146 19.4637 20.6146H20.2131C20.68 20.6146 20.832 20.8426 20.8973 21.1031L21.8311 24.0324C21.8529 24.1301 21.8529 24.1953 21.8963 24.1953C21.9397 24.1953 21.9397 24.1301 21.9506 24.0324L22.5987 19.2669C22.6097 19.1474 22.6965 19.0714 22.7833 19.0714H23.9344C24.0323 19.0714 24.1191 19.1257 24.1191 19.2235V19.256Z" fill="#555555"/>
<path fill-rule="evenodd" clip-rule="evenodd" d="M33.2692 19.0714H33.1413C33.035 19.0714 32.9605 19.1703 32.9392 19.2803L31.9744 24.9599C31.9637 25.0039 31.9105 25.0479 31.8998 25.0479C31.898 25.0479 31.897 25.047 31.8952 25.0468V25.0466C31.8922 25.0464 31.8902 25.0447 31.8873 25.0442C31.8563 25.0375 31.8453 25.0092 31.836 24.9706L30.0984 19.4121C30.0346 19.2253 29.8962 19.0714 29.6196 19.0714C29.6055 19.0714 29.5911 19.072 29.5765 19.0731V19.0714C29.5698 19.0719 29.563 19.0729 29.5562 19.0736V19.0714C29.3448 19.0946 29.1019 19.237 29.0342 19.606L28.0533 25.3003V25.3443C28.0533 25.4321 28.1065 25.5091 28.2022 25.5091H28.3087C28.4151 25.5091 28.5003 25.4102 28.5215 25.3003L29.5025 19.606C29.5116 19.5591 29.536 19.5373 29.5562 19.5316V19.5338C29.5597 19.5329 29.5633 19.5313 29.5664 19.5313C29.5698 19.5313 29.5731 19.5328 29.5765 19.5331V19.5348C29.6154 19.5396 29.6523 19.5695 29.6622 19.61L31.3996 25.1575C31.4846 25.4315 31.6225 25.5088 31.8873 25.5091C31.888 25.5091 31.8886 25.5092 31.8892 25.5092C31.8912 25.5092 31.8933 25.5089 31.8952 25.5089V25.5092C32.1588 25.5061 32.39 25.3089 32.4532 24.9599L33.4181 19.2803V19.2363C33.4181 19.1484 33.3756 19.0714 33.2692 19.0714" fill="#555555"/>
</g>
</g>
<path fill-rule="evenodd" clip-rule="evenodd" d="M46 56C51.5228 56 56 51.5228 56 46C56 40.4772 51.5228 36 46 36C40.4772 36 36 40.4772 36 46C36 51.5228 40.4772 56 46 56Z" fill="white"/>
</g>
<defs>
<clipPath id="clip0_12439_1225">
<rect width="56" height="56" fill="white"/>
</clipPath>
<clipPath id="clip1_12439_1225">
<rect width="56" height="56" fill="white"/>
</clipPath>
</defs>
</svg>
