<svg width="32" height="33" viewBox="0 0 32 33" fill="none" xmlns="http://www.w3.org/2000/svg">
<mask id="mask0_6851_7532" style="mask-type:alpha" maskUnits="userSpaceOnUse" x="0" y="0" width="32" height="33">
<path d="M16.4 32.5C25.0156 32.5 32 25.3547 32 16.5406C32 7.72644 25.0156 0.581177 16.4 0.581177C7.78435 0.581177 0.799988 7.72644 0.799988 16.5406C0.799988 25.3547 7.78435 32.5 16.4 32.5Z" fill="#C4C4C4"/>
</mask>
<g mask="url(#mask0_6851_7532)">
<rect x="-6.29095" y="-6.67303" width="45.3818" height="46.4273" fill="url(#paint0_linear_6851_7532)"/>
<g clip-path="url(#clip0_6851_7532)">
<path fill-rule="evenodd" clip-rule="evenodd" d="M19.2143 39.573L13.5636 36.3643L21.2084 23.7043L26.8591 26.913L19.2143 39.573Z" fill="#FA6400"/>
<path fill-rule="evenodd" clip-rule="evenodd" d="M-8.59552 41.4347L-2.34703 44.5602H-0.247316L8.59994 29.9521L0.928124 25.6085L-8.59552 41.4347Z" fill="#5CB79F"/>
<path fill-rule="evenodd" clip-rule="evenodd" d="M14.929 32.7719L9.48633 29.7466L11.3118 26.7872L16.7545 29.8126L14.929 32.7719Z" fill="#B71277"/>
<path fill-rule="evenodd" clip-rule="evenodd" d="M19.7455 39.6574L32.7073 46.8741L64.9837 35.2372L32.4375 18.3292L19.7455 39.6574Z" fill="#F75F75"/>
<path fill-rule="evenodd" clip-rule="evenodd" d="M-5.22729 21.5172L8.87354 29.4623L11.3426 25.4094L-2.83921 17.3567L-5.22729 21.5172Z" fill="#DF3378"/>
<path fill-rule="evenodd" clip-rule="evenodd" d="M9.08452 42.2933L3.63629 39.2531L9.17897 30.233L14.6272 33.2732L9.08452 42.2933Z" fill="#F5B554"/>
</g>
<path d="M10.0023 14.4953C10.139 14.4387 10.2592 14.3629 10.3617 14.2679C10.4643 14.173 10.5446 14.0598 10.6031 13.9291C10.6611 13.7989 10.6906 13.6591 10.6906 13.5113V11.9046C10.6906 11.7285 10.3602 11.5658 10.2778 11.418C10.3602 11.2627 10.6906 11.0973 10.6906 10.9206V9.14481C10.6906 8.99646 10.6616 8.85719 10.6031 8.72699C10.5451 8.59679 10.4643 8.48207 10.3617 8.38335C10.2592 8.28463 10.139 8.20726 10.0023 8.1507C9.86503 8.09414 9.72156 8.06586 9.57084 8.06586H7.599V14.5801H9.57084C9.72156 14.5801 9.86555 14.5518 10.0023 14.4953ZM9.44808 13.4168H8.84208V11.8011H9.44808V13.4168ZM9.44808 10.6368H8.84208V9.03061H9.44808V10.6368Z" fill="white"/>
<path d="M10.6895 14.8378H7.5979V15.4611H10.6895V14.8378Z" fill="white"/>
<path d="M13.7393 14.0225H12.3325V8.06531H11.0894V15.4717H13.7393V14.0225Z" fill="white"/>
<path d="M21.1236 8.48241C21.0211 8.35914 20.9009 8.26203 20.7642 8.19159C20.6269 8.12116 20.4834 8.08594 20.3327 8.08594H19.1927C19.0352 8.08594 18.8897 8.12116 18.7561 8.19159C18.6224 8.26203 18.5043 8.35914 18.4018 8.48241C18.2992 8.60567 18.2184 8.74867 18.1604 8.91089C18.1024 9.07311 18.0729 9.24599 18.0729 9.42955V14.1381C18.0729 14.3216 18.1019 14.4961 18.1604 14.6621C18.2184 14.828 18.2992 14.9705 18.4018 15.0906C18.5043 15.2106 18.6224 15.3056 18.7561 15.376C18.8897 15.4465 19.0352 15.4817 19.1927 15.4817H20.3327C20.4834 15.4817 20.6269 15.4465 20.7642 15.376C20.9009 15.3056 21.0211 15.2106 21.1236 15.0906C21.2262 14.9705 21.307 14.828 21.365 14.6621C21.423 14.4967 21.4525 14.3216 21.4525 14.1381V12.9743H20.2099V14.0324H19.3165V9.53521H20.2099V10.6462H21.4525V9.42955C21.4525 9.24599 21.4235 9.07364 21.365 8.91089C21.307 8.74867 21.2267 8.6062 21.1236 8.48241Z" fill="white"/>
<path d="M23.0753 15.3447L23.2498 14.7732L23.6709 15.4711H25.2217L23.7528 13.1014L25.2626 8.05402H23.9377L23.0753 10.9424V8.05402H21.8322V15.4711H23.0753V15.3447Z" fill="white"/>
<path d="M25.1051 16.307C24.8529 16.266 24.5457 16.1923 23.6082 16.1923C22.5842 16.1923 21.7887 16.4794 21.7887 17.8726L21.7881 19.5973C21.7881 20.9905 22.5837 21.2776 23.6077 21.2776C24.5452 21.2776 24.8523 21.2039 25.1046 21.1629C25.2227 21.1463 25.262 21.1052 25.262 20.9905V20.466C25.262 20.3758 25.1911 20.3021 25.1046 20.3021H23.4979C23.0411 20.3021 22.8758 20.1383 22.8758 19.5973L22.8764 19.1186H25.0114C25.0989 19.1181 25.1688 19.0444 25.1688 18.9548V18.3646C25.1688 18.2744 25.0979 18.2008 25.0114 18.2008H22.8764V17.8732C22.8764 17.3321 23.0421 17.1683 23.4989 17.1683H25.1061C25.1937 17.1678 25.2636 17.0941 25.2636 17.0045V16.4799C25.2626 16.3647 25.2232 16.3236 25.1051 16.307Z" fill="white"/>
<path d="M15.6411 16.3598H15.5567C15.4722 16.3598 15.4049 16.435 15.3878 16.5193L14.5653 21.118V21.1516C14.5653 21.2188 14.6078 21.2775 14.6834 21.2775H14.7678C14.8523 21.2775 14.9196 21.2023 14.9362 21.118L15.7587 16.5193V16.4857C15.7587 16.4185 15.7167 16.3598 15.6411 16.3598Z" fill="white"/>
<path d="M13.748 16.3598H12.9022C12.8385 16.3598 12.7748 16.418 12.7665 16.5092L12.2905 20.1495C12.2822 20.2242 12.2822 20.2738 12.2506 20.2738C12.2185 20.2738 12.2185 20.2242 12.2024 20.1495L11.5162 17.9121C11.4685 17.713 11.3566 17.5391 11.0137 17.5391H10.4626C10.1192 17.5391 10.0079 17.713 9.95972 17.9121L9.27344 20.1495C9.25738 20.2242 9.25738 20.2738 9.22578 20.2738C9.19419 20.2738 9.19367 20.2242 9.1859 20.1495L8.69333 16.5092C8.68556 16.418 8.62134 16.3598 8.55763 16.3598H7.71181C7.63982 16.3598 7.57611 16.4014 7.57611 16.4761V16.5007L8.24427 20.6052C8.31574 21.1275 8.54727 21.277 8.96266 21.277H9.3936C9.75254 21.277 9.94418 21.0945 10.0561 20.6132L10.6864 18.5497C10.7025 18.475 10.7102 18.4585 10.7423 18.4585C10.7739 18.4585 10.7739 18.475 10.79 18.5497L11.4203 20.6132C11.5322 21.0945 11.7233 21.277 12.0828 21.277H12.5137C12.9286 21.277 13.1601 21.1275 13.2316 20.6052L13.8837 16.5007V16.4761C13.8837 16.4014 13.82 16.3598 13.748 16.3598Z" fill="white"/>
<path d="M20.5938 16.3598H20.5005C20.4228 16.3598 20.3685 16.4356 20.3529 16.5193L19.648 20.8576C19.6402 20.8912 19.6014 20.9248 19.5936 20.9248C19.5921 20.9248 19.5915 20.9243 19.5905 20.9237C19.5884 20.9237 19.5869 20.9221 19.5848 20.9221C19.562 20.9168 19.5542 20.8954 19.5475 20.8661L18.2775 16.6202C18.2309 16.4777 18.1294 16.3598 17.9274 16.3598C17.917 16.3598 17.9066 16.3603 17.8958 16.3614V16.3598L17.8807 16.3614V16.3598C17.7264 16.3774 17.5487 16.4863 17.499 16.7685L16.7822 21.118V21.1516C16.7822 21.2188 16.821 21.2775 16.8909 21.2775H16.9686C17.0463 21.2775 17.1085 21.2023 17.124 21.118L17.8409 16.7685C17.8476 16.7328 17.8657 16.7163 17.8802 16.7114V16.713C17.8828 16.7125 17.8854 16.7114 17.8875 16.7114C17.8901 16.7114 17.8927 16.7125 17.8952 16.713V16.7146C17.9253 16.7189 17.9501 16.7413 17.9579 16.7717L19.2279 21.0091C19.2901 21.2183 19.3906 21.2775 19.5843 21.2775H19.5858L19.5905 21.277V21.2775C19.7832 21.2748 19.952 21.1244 19.9981 20.8581L20.7031 16.5199V16.4863C20.7025 16.419 20.6715 16.3598 20.5938 16.3598Z" fill="white"/>
<path d="M16.5978 8.06531H15.4169L14.0816 15.4616H15.3552L15.6323 13.9168H16.4025L16.6796 15.4616H17.9533L16.5978 8.06531ZM15.7313 12.467L16.012 11.1773L16.3031 12.467H15.7313Z" fill="white"/>
</g>
<defs>
<linearGradient id="paint0_linear_6851_7532" x1="31.8332" y1="-1.91238" x2="-1.82199" y2="29.6417" gradientUnits="userSpaceOnUse">
<stop stop-color="#4F4F4F" stop-opacity="0.98"/>
<stop offset="1"/>
</linearGradient>
<clipPath id="clip0_6851_7532">
<rect width="45.3818" height="43.3443" fill="white" transform="translate(-6.29095 -3.58997)"/>
</clipPath>
</defs>
</svg>
